<?xml version="1.0" encoding="utf-8"?><svg viewBox="0 0 223 35" xmlns="http://www.w3.org/2000/svg" xmlns:xlink="http://www.w3.org/1999/xlink"><style>:root>svg{display:none}:root>svg:target{display:block}</style><svg fill="none" viewBox="0 0 223 35" id="daologo" xmlns="http://www.w3.org/2000/svg"><path d="M203.446 15.836c-.411-.107-.828-.206-1.239-.317-.585-.162-1.338-.043-1.661-.659l-.112.124c.056.082.112.167.18.261-.722-.08-1.419-.158-2.116-.24-.019.03-.031.056-.05.086.299.107.598.219.834.304-.162 0-.516.077-.628-.013-.735-.603-1.867-.475-2.751-.787.019-.051.037-.098.05-.15.572.052 1.139.099 1.711.15l.019-.038-.591-.18c.006-.03.012-.06.012-.09l1.494.141a.46.46 0 01.037-.047c-.112-.047-.218-.098-.33-.145-.006-.034-.006-.064-.012-.099l1.3-.115c-.006-.034-.006-.068-.012-.103-.492.112-.94-.145-1.487.047-.305.107-.791-.064-1.177-.188l.841-.09c0-.02-.007-.042-.013-.064h-1.357c.15.133.256.223.455.398-.716-.073-1.301-.15-1.892-.184-.778-.043-1.562-.038-2.34-.081-.181-.009-.355-.111-.523-.257 1.998-.03 4.002-.06 5.999-.085 0-.039.007-.082.007-.12-.498-.077-1.002-.158-1.5-.235 0-.022 0-.039.006-.06h2.079c.006-.052.012-.103.025-.154-.15 0-.305-.004-.455 0-.243.004-.485.03-.728.021-.218-.008-.442-.051-.703-.081.068-.103.112-.175.149-.231-.448-.068-.884-.137-1.325-.205.006-.026.006-.056.012-.082l1.407.116v-.111c.168.008.336.013.497.021 0-.021.007-.047.007-.068-1.127-.124-2.253-.248-3.554-.394.554-.064.977-.111 1.394-.158 0-.039.006-.077.006-.116-.242.009-.479.026-.722.026-.311 0-.634.013-.939-.034-.274-.043-.523-.167-.766-.347h1.861c-.759-.449-1.624-.09-2.415-.23v-.12c.399 0 .803.021 1.201-.005.735-.042 1.469.035 2.21-.18.522-.149 1.188-.055 1.786-.038.46.013.921.073 1.4.111-.199.022-.392.043-.579.065.013.047.019.094.031.14.424-.068.859-.106 1.258-.217.323-.095.585-.325.908-.407.318-.077.691-.025 1.033-.051.255-.021.511-.107.766-.111.367-.009.734.034 1.108.051.261.013.522.017.79.026.006-.039.012-.077.012-.116l-.84-.038c0-.022 0-.039.006-.06.511-.03 1.021-.06 1.531-.086v-.06h-7.25v-.08c.878-.073 1.761-.185 2.639-.202.89-.017 1.786.077 2.682.081 1.214.005 2.434.035 3.635-.068 1.107-.094 2.19-.342 3.292-.577-1.108-.018-2.216-.03-3.317-.056-.946-.021-1.923.03-2.832-.12-1.319-.218-2.632-.167-3.958-.21-1.207-.038-2.409-.149-3.61-.162-.535-.004-1.07.163-1.612.231-.13.017-.28-.043-.566-.094.355-.064.573-.103.884-.154-.61-.355-1.257-.278-1.867-.38h1.251l-.616-.176c.012-.034.018-.073.031-.107.442.039.883.077 1.325.111l.019-.072a5.305 5.305 0 01-.224-.107c.143-.146.404-.077 1.319.35-.161.039-.298.073-.429.103.031.013.062.03.087.043h2.95c.006-.039.006-.077.012-.111l-2.956-.398-.018-.069c1.574-.051 3.155-.102 4.729-.158.007-.043.007-.081.013-.124-.156-.051-.311-.107-.585-.197.361.022.591.035.821.047l.019-.047c-.174-.055-.355-.115-.591-.192.124-.077.205-.124.174-.103-1.213-.073-2.502-.15-3.79-.222-.461-.026-.927-.03-1.394-.06-.672-.043-1.338-.103-2.004-.154 0-.034.006-.073.006-.107h7.668c.006-.03.006-.064.012-.094-.629-.034-1.263-.098-1.892-.103-1.711-.008-3.423.034-5.141.013-.877-.008-1.748-.12-2.626-.158-.211-.009-.436.098-.653.15-.112.025-.231.072-.343.064-.516-.043-1.033-.12-1.549-.146a76.651 76.651 0 00-2.427-.081c-.579-.013-1.164-.004-1.749-.004a5.37 5.37 0 01.155-.193c-.591-.034-1.157-.051-1.724-.102a93.526 93.526 0 01-2.694-.274c-1.065-.124-2.123-.295-3.193-.38-.436-.035-.89.127-1.344.166a3.812 3.812 0 01-.884-.03c-.797-.124-1.581-.278-2.371-.42-.448.343-1.226-.025-1.656.42-.062.064-.354.009-.541.009.031-.137.056-.278.087-.402-.572.205-.815-.278-1.251-.381a14.99 14.99 0 00-.983-.193c-.237-.038-.479-.047-.716-.072-.05-.005-.099-.026-.149-.026-.504-.017-1.008-.03-1.55-.047-.087.038-.255.188-.423.188-.647-.004-1.295-.051-1.942-.094-.597-.038-1.195-.09-1.792-.133-.766-.05-1.531-.094-2.34-.064.361.082.728.167 1.089.248l-.056.124-2.11-.513c.013-.051.019-.102.031-.158h3.025c-.05-.158-.61-.145-.093-.432-1.339-.116-2.546-.218-3.865-.33.174.108.274.172.386.24-.977.09-1.936.18-2.938.274 1.245.248 2.458.492 3.678.736l-.037.188c-1.575-.06-3.149-.124-4.718-.184v-.176h1.357c-.641-.312-1.17-.15-1.705-.102a18.6 18.6 0 01-1.469.06c-.112 0-.218-.124-.342-.141-.218-.03-.442-.022-.66-.026-.218-.004-.442 0-.715 0 .143.077.261.137.392.205-.38.03-.735.081-1.09.077-.143 0-.286-.115-.398-.256l-.772.077c-.006-.043-.018-.086-.024-.125 1.064-.256 2.221-.042 3.298-.299-.093-.047-.212-.103-.324-.162l.038-.077c.379.09.765.18 1.176.273l-.33.3c.548-.022.965-.039 1.407-.052-.038-.132-.063-.205-.1-.329.405.064.766.12 1.133.175.006-.042.018-.08.025-.124-1.307-.47-2.82-.145-4.176-.479.199.077.392.159.591.236a.348.348 0 01-.025.072c-.821-.158-1.643-.32-2.464-.479-.019.034-.032.064-.05.099l1.251.406c-.119.051-.212.124-.299.12-1.195-.035-2.39-.073-3.591-.12-.124-.004-.237-.09-.355-.137-.025.03-.043.064-.068.094.13.06.249.133.386.176.155.05.323.072.647.145-.268.107-.38.15-.517.201.15.077.268.141.417.222-.522.347-1.151.171-1.705.261-.871.137-1.743.052-2.614.069-.404.008-.852.2-1.188.12-.978-.244-1.98-.056-2.919-.189-.629-.09-1.282.005-1.892-.2h.379c.007-.022.007-.044.013-.065l-.579-.064c-.1.081-.205.227-.305.227-.255-.005-.504-.086-.759-.112-.697-.072-1.394-.128-2.085-.196-.131-.013-.255-.06-.386-.09a6.951 6.951 0 011.512-.086c.318.013.629.073.934.129.156.03.292.098.436.15l-.019.132c.224-.051.448-.103.672-.158.205-.077.429-.24.61-.214.498.068.94.073 1.419-.094.286-.099.66-.064.996-.086.012-.034.018-.068.031-.102l-1.12-.257c.136-.047.292-.098.441-.15l-.018-.102c-1.108.29-2.216.239-3.324.03-.006.038-.018.072-.024.11.161.04.329.073.491.112v.064c-.292-.013-.591-.021-.884-.051-.056-.005-.143-.09-.143-.137 0-.047.081-.124.143-.137.15-.026.305-.021.461-.051h-2.216l1.376.462c-1.494.18-2.857-.043-4.357-.026.411.103.673.167.934.23l-.019.138c-.28-.022-.566-.022-.827-.082-.131-.03-.212-.17-.318-.26.031-.043.056-.082.087-.124l-2.732-.219c0-.055.006-.11.006-.17.94-.082 1.886-.163 2.826-.24 0-.013 0-.026-.006-.039h-3.031l.927-.18a.299.299 0 00-.025-.072c-1.045.094-2.091.192-3.124.287.647.17 1.288.342 2.029.534-1.052.107-1.973.197-2.894.291v.09c.28.013.56.026.902.038-.261.278-.143.364.249.407.735.085 1.463.222 2.191.342l.037-.137c-.635-.098-1.269-.193-2.022-.308.224-.06.336-.09.597-.163-.392-.042-.647-.068-.902-.098.006-.021.006-.047.012-.068h1.892c0 .03.006.055.006.085-.137.03-.267.06-.404.086.392.085.771.338 1.151-.026.075-.073.442.004.666.047.324.06.629.21.952.223 1.052.034 2.11.012 3.162.034.193.004.386.098.579.154l-.038.115h-2.632c-.249.005-.492.013-.741.013-.268 0-.479-.056-.772.124-.236.146-.79.004-1.201.004-.429 0-.865.009-1.294.039-.455.03-.915.222-1.313-.116-.038-.03-.137-.042-.2-.03-.703.129-1.375.103-2.028-.196.037.055.074.11.105.162-.199.034-.398.064-.578.094.068-.214.112-.355.168-.547.392.073.821.145 1.244.222-.535-.406-1.226-.406-1.892-.466-.423-.038-.84-.09-1.263-.107-.373-.017-.747.022-1.12.009a12.971 12.971 0 01-1.226-.112c-.666-.09-1.332-.2-2.01-.26.715.385 1.73.196 2.52.701-1.618.009-3.099-.009-4.649-.197.174-.196.268-.3.374-.423l.641.175c-.212-.244-.206-.26-1.208-.423-.435-.073-.896-.064-1.344-.184.566-.039 1.133-.077 1.693-.12-1.73-.235-3.492.218-5.216-.154 1.034-.197 2.11.261 3.131-.145-.417.03-.84.064-1.27.094.094-.111.175-.206.255-.304l.013.009c-1.12.034-2.241.09-3.361.102a37.996 37.996 0 01-2.421-.077c-.435-.025-.871-.09-1.294-.158-.112-.017-.199-.115-.355-.214.05.141.081.24.118.35-.348.09-.84.116-.952.51-.535-.03-1.083-.051-1.624-.098-.336-.03-.747.12-.99-.206-.025-.034-.199-.021-.305-.013-.784.047-1.562.09-2.346.15-.112.009-.218.098-.324.223 1.463-.497 2.776.188 4.176.222-.827.137-1.661.26-2.52.137-.398-.056-.803-.09-1.207-.133-.243-.025-.51-.004-.723-.077-.205-.073-.354-.24-.553-.38l.628-.159c-.485-.021-.97-.047-1.45-.068.51-.176 1.015-.312 1.444.077.38-.026.76-.073 1.139-.077.84-.013 1.686-.004 2.601-.004-.118.06-.174.085-.23.115.006.03.019.056.025.086.429-.073.853-.167 1.288-.219.38-.042.772-.034 1.164-.05-.006-.052-.019-.104-.025-.155h-4.699a4.705 4.705 0 01-.018-.107c.255-.051.504-.098.759-.15a31.972 31.972 0 01-.423-.359c.018.18.03.261.043.377h-2.165l.336-.099c-.455-.128-.84-.235-1.245-.346.367-.047.716-.09 1.07-.137 0-.017-.006-.03-.006-.047h-1.456c-.037.244-.069.487-.112.783-.672-.052-1.35-.146-2.023-.146-.591 0-1.176.116-1.767.167-.23.017-.467-.009-.703-.017l.012.013c-.573-.364-1.207-.201-1.705.025-.274.124-.405.12-.66.069-.205-.043-.448 0-.666-.022-.168-.017-.33-.072-.492-.11h-1.008c.206-.146.411-.245.616-.236.131.004.255.158.38.244.473-.133.94-.287 1.419-.398.2-.047.436-.009.747-.009-.523-.333-1.046-.243-1.525-.188-.672.082-1.326.236-2.004.36.05.042.13.124.218.205l-.044.107c-.305-.026-.61-.052-.97-.081-.411.196-.99.064-1.525.064-.554 0-1.108-.064-1.68-.099-.02-.06-.044-.145-.057-.18.268-.09.535-.179.834-.282-.292-.286-.896.035-.927-.38.616-.09 1.17-.171 1.718-.253V.617h-1.849c-.168.266-2.582.89-3.628.834.08.082.137.137.212.201h-1.75c-.086 0-.198-.042-.254-.017-.654.325-1.264-.124-1.867.03l.087-.449.018.013c-.547.235-1.35.346-1.363.175.112-.017.225-.034.337-.047-.069-.068-.131-.132-.193-.196-1.22.316-3.143.419-3.996.282.093.103.143.214.212.222.373.03.753.052 1.132.043 1.046-.026 2.091-.077 3.143-.094.125-.004.25.124.374.192-.125.069-.23.18-.368.201-.945.167-1.86-.085-2.794-.132-.317-.017-.64.103-.97.124-.237.013-.486-.034-.729-.051l-.579-.039c-.012.034-.018.069-.03.103.173.043.354.081.684.158-.747.278-1.425.051-2.041.171.024-.098.037-.154.05-.214.292-.021.628-.047.958-.068 0-.034-.006-.064-.006-.099h-1.208c-.006-.025-.006-.05-.012-.072.162-.026.33-.056.59-.099-.846-.214-1.642.394-2.401-.034-.53.039-1.108.086-1.693.111-.081.005-.174-.124-.324-.24h-1.948c.206-.072.318-.106.423-.145l-.037-.115c-1.164.316-2.408.115-3.585.466h1.768c-2.57.227-5.128.595-7.736.424.1-.013.193-.022.293-.035.38-.055.765-.042 1.15-.094 1.015-.14 2.073-.098 3.113-.154.367-.017.728-.098 1.095-.15-.006-.034-.019-.064-.025-.098-.772.034-1.543.081-2.315.099-1.413.03-2.825.047-4.238.047-.703 0-1.413-.099-2.11-.065-.573.03-1.127.206-1.693.3-.311.051-.64.107-.958.09-1.008-.043-2.01-.12-3.019-.18-.006.039-.018.077-.024.116l.553.072c.007.03.007.06.013.09-.778.068-1.556.141-2.334.21-.006-.017-.012-.039-.019-.056.224-.051.448-.107.672-.158-.908.124-1.736-.291-2.65-.176-.94.12-1.911.133-2.87.189-.012.042-.03.08-.043.124.193.09.386.18.69.325-.385.013-.69.025-1.002.038l-.018-.077c.068-.03.137-.064.211-.094-.024-.017-.043-.047-.068-.051-.349-.056-.703-.103-1.052-.154-.087-.013-.211-.052-.249-.026-.541.347-1.058-.055-1.6-.021-.547.034-1.107-.052-1.66-.082-.007-.047-.02-.094-.026-.136.46-.073.921-.201 1.388-.214 1.693-.047 3.392-.047 5.085-.086.784-.017 1.562-.098 2.346-.128.236-.009.473.064.716.064.753 0 1.506-.013 2.259-.026.037 0 .075-.042.106-.102-.567.102-1.065-.188-1.68-.043-.486.111-1.071-.051-1.619-.056-.784-.012-1.574.017-2.359.009-.28-.004-.566-.116-.84-.107-.442.013-.877.098-1.313.137-1.469.12-2.937.286-4.412.325-1.37.038-2.776.051-4.108-.145-1.002-.15-1.823.025-2.695.243-.13.035-.217.167-.36.283l-2.222-.154c.566-.548 1.475-.15 2.178-.437h-2.75c.26.069.416.112.709.189-.293.068-.461.136-.629.14-1.195.035-2.384.04-3.578.09-1.992.082-3.984.184-5.975.291-1.587.09-3.174.21-4.767.3-.262.013-.53-.064-.797-.103 0-.034.006-.073.006-.107 1.202-.188 2.39-.415 3.604-.547 1.282-.141 2.583-.193 3.877-.283-.006-.042-.006-.085-.012-.124-.91.056-1.811.099-2.72.167-.896.069-1.799.146-2.695.235-.921.095-1.836.206-2.757.313-.915.102-1.83.205-2.813.32-.012-.15 0-.278-.043-.393-.044-.116-.125-.278-.243-.308-.13-.034-.43.026-.467.098C1.463 2.62.653 2.948 0 3.5c.311.039.51.047.697.09.205.047.405.128.598.201.093.034.174.086.26.133.032-.077.038-.163.094-.223.143-.158.274-.333.473-.44.094-.052.33.042.535.072-.392.27-.697.484-1.114.77.374.056.58.069.766.116.218.06.423.15.635.222.093.034.193.086.28.081.05-.004.13-.12.118-.175-.08-.41.342-.406.753-.59-.112.197-.174.282-.205.376-.168.522-.143.543.59.565.175.004.343.034.517.055.156.018.305.039.461.056-.137.483-.118.492.56.526.361.017.716.073 1.07.18-.186 0-.385.021-.566-.005-.603-.08-1.083-.145-1.6.317-.323.29-1.157.274-1.773.376-.18.03-.38.005-.71.005.43.303.779.556 1.065.757-.137.483-.224.89-.386 1.279-.075.18-.305.32-.467.479-.093.09-.255.175-.274.27a3.665 3.665 0 00.3 2.16c.018.042.099.072.204.14-.23.146-.441.283-.66.424.324.355-.074.598-.391.855.815.342 1.332.766 1.151 1.51-.031.115.299.278.442.398-.355.145-.697.282-1.145.466.28.085.417.128.585.18-.15.094-.293.18-.486.299.237.111.43.205.685.33-.156.132-.299.252-.423.359.112.188.417.483.33.581-.212.231-.61.372-.99.578.106.445.865.38 1.32.667-.274.128-.53.244-.778.36l.168.025c.043.158.18.342.112.466-.2.355-.467.693-.741 1.022-.137.167-.174.257.031.432.317.27.66.582.23.98-.087.081-.143.244-.093.333.311.565-.317.971-.398 1.48.087.077.199.171.348.3-.242.025-.41.043-.442.043.125.166.3.354.399.56.143.286.1.624.578.795.112.039.168.257.15.39-.031.295.075.5.479.59.112.025.218.077.33.12l-.081.132c-.317.086-.635.176-.952.261 0 .026-.006.047-.006.073.298.013.61 0 .896.047.193.03.404.124.529.235.174.163.274.368.41.552.293.39.218.535-.354.706-.137.042-.268.094-.399.145.013.034.02.064.032.098H5.01c.193.296.43.608.597.941.119.244.05.47-.149.736-.38.505-.087.791.784.855-.168.103-.317.193-.46.278.018.03.037.06.056.086l.914-.192c.144.175.193.496.685.504.062 0 .112.176.187.261.087.099.168.24.292.278.442.124.53.394.585.684l-.012-.008c.435-.193.435-.193 1.3.043-.33.32-.38.33-.746.102.03.09.037.197.106.278.05.065.242.15.255.142.454-.347.946-.069 1.425-.065.255.005.51-.038.772-.055.05.043.1.085.149.132-.299.124-.598.244-.89.368.062.064.125.129.187.197.64-.124 1.275-.282 1.929-.364.56-.072 1.145-.068 1.718-.077.778-.012 1.562.009 2.34-.004.71-.013 1.419-.047 2.128-.09.504-.03 1.008-.11 1.512-.115.424-.004.847.077 1.27.12l-.019-.013c.554-.047 1.114-.099 1.668-.146.087-.008.224-.017.255.017.467.48 1.164.223 1.855.317-.23.197-.423.363-.616.526l.037.081c.635-.128 1.264-.29 1.91-.372.53-.064 1.084-.038 1.625-.043 1.108-.004 2.216.018 3.317-.012 1.35-.039 2.695-.116 4.046-.176.155-.008.31.013.529.022-.113.098-.18.158-.349.308.81-.047 1.5.175 2.19-.171.25-.124.623-.099.947-.197.616-.184 1.331-.184 2.01-.257.019.034.043.069.062.099-.2.162-.392.325-.591.491.019.03.043.06.062.09.66-.14 1.313-.32 1.992-.41.479-.065.983-.013 1.475-.017 1.139-.005 2.284.02 3.423-.018.908-.03 1.81-.17 2.72-.192.522-.013 1.05.124 1.58.162.647.047 1.276.154 1.935-.115.374-.15.915-.077 1.382-.094.224-.009.448.017.722.026-.062-.095-.093-.154-.137-.214h.878c-.15.162-.262.29-.473.517.765-.158 1.387-.333 2.035-.41.529-.065 1.089-.056 1.63-.026 1.612.09 3.218.214 4.83-.004.323-.043.666.004 1.002.017.417.013.84.025 1.257.047.236.013.591-.141.597.226 0 .026.118.069.18.069.56 0 1.158.081 1.662-.039.853-.21 1.68-.064 2.515-.055.292.004.59.017.883.03 1.177.038 2.353.081 3.53.115.41.013.827 0 1.12 0-.38.218-.828.48-1.376.796 1.189.192 2.16-.017 3.23-.223-.622-.145-1.127-.265-1.668-.393.535-.317 1.133-.312 1.724-.308.068 0 .174.008.193.043.36.534 1.008.346 1.58.355.05 0 .106.008.256.025l-.66.548c.013.025.025.055.037.081.654-.124 1.295-.278 1.96-.363.53-.069 1.078-.06 1.619-.065 1.07-.008 2.135.03 3.205-.008 1.033-.034 2.06-.167 3.1-.205 1.107-.043 2.215-.03 3.323-.039.66-.004 1.32 0 2.072 0v-.612c1.73-.047 3.516-.077 5.303-.145 1.157-.043 2.308-.171 3.46-.205.84-.026 1.686.038 2.533.068.404.013.809.047 1.213.069 1.78.094 3.56.192 5.346.278.94.042 1.88.068 2.826.094 1.481.038 2.962.06 4.443.11 1.749.06 3.504.15 5.253.215 1.637.06 3.274.06 4.904.162 1.562.099 3.087-.072 4.63-.14.716-.03 1.432-.005 2.147-.018 1.376-.021 2.751-.03 4.127-.09 1.12-.047 2.234-.167 3.354-.23 1.083-.065 2.166-.082 3.243-.155 1.145-.077 2.29-.205 3.435-.286.479-.035.971.017 1.45.008 1.064-.013 2.135-.013 3.193-.068 1.076-.06 2.153-.184 3.223-.274 1.058-.09 2.123-.21 3.181-.248 1.319-.051 2.645-.026 3.97-.043.467-.008.927-.055 1.394-.077 1.033-.047 2.073-.085 3.106-.132.591-.03 1.182-.082 1.78-.112.311-.012.628.013.939.009.953-.013 1.911-.034 2.863-.047.43-.004.865-.009 1.295.009.597.025 1.151.068 1.767-.129.517-.162 1.195-.025 1.805-.034.268-.004.529-.051.797-.077v-.103c-.685-.055-1.37-.115-2.054-.17.006-.03.012-.06.012-.086h2.558c-.112-.099-.162-.141-.236-.21 1.244-.3 2.501 0 3.784-.081-.075-.094-.125-.163-.206-.261h3.025v-.056c-.33-.055-.666-.115-.996-.17l.019-.15c1.512-.043 3.024-.086 4.543-.124l.018-.047-2.284-.321c.007-.056.013-.107.025-.163.175-.008.38-.064.517-.013.467.171.909.124 1.406.077.865-.081 1.743-.072 2.658-.102-.094-.415.137-.45.641-.411 1.288.094 2.589.107 3.883.15.007-.043.019-.086.025-.129-.13-.021-.255-.05-.386-.064-.149-.013-.305-.013-.56-.021.206-.116.336-.184.467-.257-.131-.043-.286-.09-.573-.184l.492-.064-.012.009c-.374-.03-.747-.077-1.121-.086-.765-.021-1.531-.025-2.296-.03-.747 0-1.494.022-2.241.013-.298-.004-.597-.068-.896-.107a.56.56 0 00.013-.107c1.07-.025 2.147-.038 3.217-.09 1.033-.047 2.123.36 3.249-.24-.324-.063-.523-.136-.728-.14-1.531-.039-3.062-.086-4.593-.077-.996.004-1.985.094-2.981.145a.266.266 0 01-.212-.077c.405-.026.816-.047 1.22-.073.006-.02.012-.047.019-.068-.243-.03-.492-.094-.735-.085-.859.025-1.755.21-2.564.077-.952-.159-1.811.2-2.713.072-.15-.021-.28-.098-.492-.175.554-.039.977-.064 1.407-.094-.007-.039-.007-.077-.013-.116h-1.643v-.064c1.033-.038 2.066-.081 3.1-.12v-.094h-6.454c-.006-.013-.006-.025-.013-.038.56-.081 1.121-.188 1.687-.235 1.394-.12 2.782-.244 4.182-.304 1.363-.06 2.726-.026 4.089-.056.734-.017 1.469-.081 2.203-.128a7.1 7.1 0 001.189-.158h-2.539c-.007-.013-.007-.026-.007-.035.162-.03.324-.064.486-.094-.529-.14-1.152.193-1.712-.286 1.936-.197 3.79-.385 5.651-.57.013.027.019.048.031.074-.087-.03-.174-.056-.28-.09.062-.039.087-.069.112-.069.156-.004.311-.004.473-.004.1.29 1.089.304 2.595-.004-.398.026-.796.047-1.194.073 0-.026-.007-.052-.007-.082 2.54-.218 5.072-.44 7.612-.658 0-.039-.007-.082-.007-.12a3.6 3.6 0 00-.305-.017c-.51 0-1.132-.133-1.506.038-.417.193-.827.128-1.219.197-.685.124-1.407.12-2.116.162-.704.043-1.407.09-2.11.099-1.145.013-2.29-.013-3.436-.004-.964.004-1.923.03-2.887.047-.143.004-.28.012-.448.021.491-.235.491-.21 1.101-.171.255.017.517-.116.784-.133.511-.038 1.021-.038 1.531-.072.206-.013.424.021.579-.201.087-.129.492-.137.753-.197l.044.107c-.193.064-.386.124-.579.188.006.026.006.047.012.073.492 0 .978.008 1.469 0 .722-.013 1.444-.03 2.166-.056.436-.013.933.043 1.301-.09.865-.303 1.724-.038 2.576-.094.977-.06 1.961-.102 2.944-.141.56-.021 1.114-.026 1.674-.038.342-.01.685 0 1.021-.026.273-.021.541.004.802-.201.187-.15.666-.094 1.021-.128.473-.043.946-.082 1.413-.201-4.612.457-9.248.423-13.878.436-.007-.039-.007-.081-.013-.12l2.228-.167a.691.691 0 00.037-.068l-1.17-.368c.007-.03.007-.056.013-.086h2.377c-.342-.136-.585-.235-.834-.333-.989.205-1.954.265-2.825-.206.006-.047.018-.094.025-.14.933.115 1.861.235 2.794.35h.38c-.181-.103-.268-.154-.355-.201l.037-.094c.423.077.847.158 1.27.235.006-.047.019-.098.025-.145-.772-.069-1.55-.133-2.359-.206.149-.042.286-.077.423-.115a2.23 2.23 0 01-.093-.094c.759-.09 1.512-.184 2.265-.274.006.021.013.043.019.069-.156.034-.311.072-.461.106 1.482.112 2.944.201 4.494-.076-.591-.103-1.046-.184-1.506-.266.018-.055.037-.11.049-.167.561-.03 1.108-.017 1.575.279.268.166.386.162.778-.01.081-.038.23.005.348.01.168.008.337.02.505.03.006-.048.018-.095.024-.146-.877-.116-1.761-.227-2.638-.342 0-.026.006-.052.006-.077.473.03.952.115 1.413.073.479-.043.939-.206 1.387-.402-1.387-.043-2.757.299-4.126-.056 1.257-.103 2.521-.21 3.716-.308.404-.073.759-.133 1.114-.197v-.051c-1.332.051-2.658.102-3.99.15l-.018-.197c3.36-.197 6.727-.398 10.101-.599-.542-.192-1.083-.231-1.706-.15-.491.064-1.027-.025-1.624-.051l.386-.141c-.156-.056-.286-.099-.461-.158.691-.065 1.332-.125 1.979-.18 0-.021 0-.043-.006-.064h-1.251v-.124c.927 0 1.861.004 2.788 0 .517-.005 1.04-.039 1.556-.03.324.004.654.102.977.094.704-.022 1.401-.09 2.104-.137l-.013.009c-.273-.039-.541-.073-.815-.112-.093-.012-.193-.025-.274-.128.859-.043 1.718-.09 2.577-.133 0-.042.006-.085.006-.128-2.402-.256-4.829-.278-7.269-.26.18.025.361.055.548.08.006.022.006.043.012.06-.137.009-.268.018-.404.022-.915.025-1.83.043-2.745.081-.355.017-.703.098-1.058.111-.373.017-.467-.15-.324-.475-.466.09-.877.167-1.195.227.268.043.617.094.965.15l-.019.128-5.277.167c-.006-.026-.006-.051-.013-.077.878-.064 1.756-.133 2.633-.197v-.128l-4.139-.09c.007-.017.007-.038.013-.055.921-.086 1.842-.197 2.763-.253.473-.03.958.056 1.431.034.859-.042 1.718-.154 2.583-.183.884-.03 1.774.004 2.664.012h1.083l-.392-.192v-.09h3.485c0-.056 0-.111.006-.162-1.487-.09-2.975-.18-4.568-.279.423-.08.728-.17 1.046-.196.373-.03.728-.009 1.126.077.523.11 1.151-.022 1.73-.073.374-.03.747-.133 1.12-.141.66-.013 1.32.008 1.979.038.374.017.741.069 1.127.026-.106-.026-.218-.056-.324-.081 0-.026 0-.047-.006-.073l1.183-.128c.006-.034.006-.069.012-.103-1.114-.085-2.222-.192-3.336-.244-.548-.025-1.108.094-1.662.099-1.076.004-2.153-.03-3.229-.043-.137 0-.274.064-.405.06-.168 0-.33-.039-.411-.052-.442.052-.852.167-1.22.12-.771-.098-1.456.163-2.19.201-.243.013-.542.099-.722.026-.89-.36-1.867-.24-2.807-.312-.734-.056-1.487-.018-2.228-.035-.386-.008-.765-.05-1.151-.077-.237.03-.467.082-.704.086-.466.009-.933-.017-1.394-.009-1.387.022-2.769.06-4.157.065-.535 0-1.089-.022-1.574-.377.429.017.79.026 1.219.043-.118-.116-.168-.171-.323-.33l2.707.411c-.013.009.075-.09.174-.094.417-.03.84-.064 1.257-.034.953.038 1.886.141 2.826.227zm-84.938-11.57c.112.107.217.218.367.363-.517-.05-.971-.098-1.488-.15.436-.08.778-.145 1.121-.213.062-.009.118-.022.292-.056-.392-.064-.672-.111-.952-.158.305-.056.622-.017.884-.094.46-.141.722.094 1.051.222.125.052.262.094.386.141-.099-.106-.193-.213-.298-.325.037-.025.081-.047.118-.072.442-.278.74-.231 1.108.11.13.125.367.19.541.279h-1.481c-.087.252-.486.385-.71.175-.292-.273-.634-.158-.939-.222zm74.115 8.657c-.379.376-.803.06-1.226.017.037.081.056.133.081.184-.081-.004-.168 0-.236-.022-.175-.055-.343-.17-.517-.17-.672-.01-1.344.02-2.016.025-.094 0-.187-.047-.28-.073.56-.08 1.138-.013 1.624-.136.703-.18 1.338.046 2.01.03.205-.005.417.085.622.132.536.021 1.071.043 1.606.06 0 .034-.006.068-.006.102-.473 0-.94.01-1.413-.008-.081-.004-.168-.094-.249-.141zM78.441 2.473c-.2.035-.405.06-.591.116-.087.026-.137.116-.274.231-.517-.043-1.152-.098-1.793-.15.007-.025.007-.055.013-.08h1.444a9.82 9.82 0 01-.405-.112c.567-.248 1.083-.077 1.606-.004.299-.086.591-.176.958-.287h-4.804v-.12h6.049c0 .026.006.052.006.077l-1.145.069v.094l.622.077c-.006.03-.006.06-.012.09h-1.674zm-22.324.03c-.012-.042-.018-.085-.03-.128.16-.03.323-.08.49-.094 1.04-.085 2.086-.17 3.125-.24a17.455 17.455 0 011.568-.034c1.027.026 2.054.082 3.075.12.317.013.628 0 .946 0-.554.064-1.102.103-1.65.159-.36.034-.821.008-1.058.162-.286.188-.522.137-.802.137-.224 0-.448-.009-.679-.009-.653 0-1.307.022-1.954 0-.137-.004-.261-.15-.423-.256-.766.423-1.705.09-2.608.184zm111.961 2.43c-.025.017.081-.107.149-.094.467.068 1.015.081 1.369.278.567.312 1.077.385 1.593.171l.641.334c.056-.154.088-.248.1-.274h3.877c.448.278 1.077.274 1.687.304.168.008.336 0 .504 0v.098c-.224.021-.442.068-.666.06-.859-.03-1.711-.086-2.564-.107-.996-.026-1.992 0-2.981-.039-.996-.042-1.985-.136-2.981-.218a.58.58 0 01-.268-.085c-.137-.111-.255-.235-.46-.428zM48.525 2.765H41.36c0-.06-.006-.12-.006-.18 1.108-.047 2.21-.116 3.317-.137.784-.017 1.569.068 2.347.03.535-.021 1.039-.086 1.506.287zM12.03 2.696a.785.785 0 01-.012-.12c.759-.072 1.512-.175 2.277-.205.635-.026 1.282.047 1.923.051.505 0 1.002-.038 1.363-.055.2.162.318.256.411.33-.797.234-1.63-.138-2.502.149-.554.18-1.32-.004-1.991-.022 0-.047-.007-.094-.007-.145.386-.038.772-.081 1.195-.124-.945-.227-1.767.342-2.657.141zM195.256 15.46l-.075.129c-.236-.103-.467-.261-.722-.291-.286-.035-.591.055-.909.09-.08-.082-.18-.189-.286-.296l-.018.12c-.337.056-.673.133-1.015.158-.243.022-.591-.107-.734-.021-.455.265-.784.026-1.164-.09.236-.021.479-.043.834-.072l-.486-.172h3.118c.156 0 .324.005.473-.025.392-.077.71-.026.953.27l-.28.102c.112.034.211.064.311.098zM58.19 4.22c.298-.056.541-.133.79-.141.846-.022 1.687-.377 2.552-.043.062.026.236.008.242-.013.1-.274.399-.145.598-.154a8.03 8.03 0 011.157.026c.206.021.399.132.598.2-.025.044-.05.082-.069.125H58.19zM18.08 2.444h4.524c0 .055.006.115.006.17-.2.018-.392.04-.591.048-.255.013-.51.008-.766.021-.28.017-.56.056-.846.069-.417.021-.84.034-1.257.038-.436.004-.847-.073-1.07-.346zm90.209 1.167v.082c-.156.042-.343.06-.455.137-.193.136-.168.15-.317.004-.05-.047-.181-.103-.224-.086-.766.317-1.525-.017-2.265-.055-.461-.026-.965-.137-1.463-.167-.187-.013-.367-.047-.554-.073l.019-.073h3.024a3.502 3.502 0 00-.049.227c.79.004 1.537.004 2.284.004zm-58.638.668c.012.047.025.09.031.137-1.394.205-2.813.23-4.257.15.38-.138.772-.232 1.17-.304.106-.018.28 0 .343.05.26.228.479.163.721-.003a.476.476 0 01.262-.09c.579.013 1.151.038 1.73.06zm-34.186.406c.007.009.007.017.013.03-1.643.154-3.28.304-4.923.458.112-.159.274-.274.448-.291a38.976 38.976 0 012.346-.188c.697-.03 1.407-.009 2.116-.009zm176.001 9.658l.018-.098c.293-.022.604-.095.884-.056.355.047.734.004 1.058.244.187.136.622.14.94.124.392-.017.473-.022.691.32l-3.206-.354c0-.018 0-.03.007-.048h1.045c0-.017 0-.038.006-.055l-1.443-.077zM12.889 4.553c-.006-.035-.019-.069-.025-.103l2.95-.274c-.056.479.48.231.784.376h-3.71zm69.137-1.985c.018.03.037.064.062.094-.311.03-.622.06-.903.085.287-.65 1.065-.491 1.65-.526.64-.038 1.375-.248 1.954.214-.168.03-.349.043-.498 0-.678-.214-1.363-.06-2.048-.043-.08.005-.149.116-.217.176zm-59.453.41c-1.114.167-2.235.432-3.28.026 1.045.009 2.16-.257 3.28-.026zm168.837 11.39c.018.03.037.06.049.095-.068.042-.13.08-.211.132l.211.047c-.056.082-.118.167-.193.274-.622-.128-1.325-.27-2.053-.42.722-.35 1.487.104 2.197-.128zM69.012 2.961c0-.034-.006-.072-.006-.107.274 0 .554.009.828 0 .578-.025 1.176-.021 1.736-.107.398-.06.46-.09.579.244-1.046.03-2.097.141-3.137-.03zm24.62-.132l-1.661-.099v-.214c.33.035.622.06 1.07.107-.205-.094-.274-.128-.38-.175.915-.038 1.774-.073 2.633-.111 0 .025.006.055.006.081-.653.081-1.307.158-2.022.248.124.06.186.086.354.163zM37.61 2.67a8.575 8.575 0 01-.02-.132c.965-.051 1.936-.107 2.901-.158l.019.124c-.934.299-1.936.085-2.9.166zm73.013.59c.673-.166 1.307-.414 1.986-.063-.125.26-.461.278-.766.252-.398-.03-.79-.116-1.22-.188zm82.443 5.236c-.137.312-1.892.3-2.807 0h2.807zM108.233 3.38c.715-.077 1.456-.166 2.165.095-.74.077-1.493.38-2.165-.095zm87.875 6.104c-.628.23-1.089-.03-1.562-.295.237-.017.467.038.697.055.1.005.199-.08.311-.106a4.54 4.54 0 01.486-.086c.031-.004.075.043.143.081-.106.073-.199.137-.299.201.094.06.162.107.224.15zM63.673 3.072c-.025-.042-.044-.09-.069-.132-.597-.107-1.238.026-1.836-.098l2.421-.167.075.132c-.193.09-.392.18-.591.265zm-10.3-.205c0-.017 0-.038-.007-.055.361-.022.722-.056 1.083-.069.361-.013.728-.004 1.09-.004l-.25.068.542.231c-.903-.06-1.68-.115-2.458-.17zm12.546 1.06c-.653.266-1.282.232-1.481 0h1.481zm145.418 15.087c1.071-.223 1.705-.193 1.88.124-.635-.039-1.251-.082-1.88-.125zm-23.556-3.508a23.6 23.6 0 01-.018.176l-2.166-.219c.267-.068.535-.08.796-.064.262.017.517.065.772.086.206.021.411.017.616.021zM27.234 3.274c-.006.042-.006.08-.013.124-.56.188-1.02-.077-1.53-.15.012-.047.018-.094.03-.146.511.056 1.009.112 1.513.172zm119.354.705h1.736c-.616.244-.616.244-1.736 0zm-101.15-.847c.66-.273.964-.248 1.394.12-.473-.043-.903-.077-1.394-.12zm147.596 9.256h1.332c-.15.321-.672.321-1.332 0zM22.722 2.598l1.6-.09c-.492.449-.971.252-1.6.09zM191.889 25.98v.073h-1.357c.019-.03.05-.099.075-.15l1.282.077zM67.705 2.546l.038.103c-.648.064-1.289.128-1.936.197-.006-.026-.006-.052-.012-.077.635-.073 1.27-.146 1.91-.223zm126.941 6.96h-1.873c.684-.129 1.25-.227 1.873 0zM65.658 4.41c-.448.12-.778.214-1.12.287-.044.008-.137-.103-.212-.158.075-.043.143-.12.224-.124.311-.013.622-.005 1.108-.005zm101.654.223c-.018.025-.031.055-.05.08-.373-.059-.746-.119-1.058-.166.063-.098.112-.18.187-.29.28.11.604.243.921.376z" fill="url(#apaint0_linear_6249:14178)"/><defs><linearGradient id="apaint0_linear_6249:14178" x1="218.643" y1="34.227" x2="17.037" y2="-39.56" gradientUnits="userSpaceOnUse"><stop stop-color="#533CA3"/><stop offset=".295" stop-color="#BF5AB8"/><stop offset=".682" stop-color="#ED641F"/><stop offset="1" stop-color="#FFE322"/></linearGradient></defs></svg></svg>